PathFileType	4	(X/Y/Z)	ptf.trc
DataRate	CameraRate	NumFrames	NumMarkers	Units	OrigDataRate	OrigDataStartFrame	OrigNumFrames
60.00	60.00	7	39	m	60.00	133	151
Frame#	Time	Sternum				R.Acromium				L.Acromium				Top.Head				R.ASIS				L.ASIS				V.Sacral				R.Thigh.Upper				R.Thigh.Front				R.Thigh.Rear				R.Knee.Lat				R.Knee.Med				R.Shank.Upper				R.Shank.Front				R.Shank.Rear				R.Ankle.Lat				R.Ankle.Med				R.Heel				R.Midfoot.Sup				R.Midfoot.Lat				R.Toe.Lat				R.Toe.Med				R.Toe.Tip				L.Thigh.Upper				L.Thigh.Front				L.Thigh.Rear				L.Knee.Lat				L.Knee.Med				L.Shank.Upper				L.Shank.Front				L.Shank.Rear				L.Ankle.Lat				L.Ankle.Med				L.Heel				L.Midfoot.Sup				L.Midfoot.Lat				L.Toe.Lat				L.Toe.Med				L.Toe.Tip				
		X1	Y1	Z1		X2	Y2	Z2		X3	Y3	Z3		X4	Y4	Z4		X5	Y5	Z5		X6	Y6	Z6		X7	Y7	Z7		X8	Y8	Z8		X9	Y9	Z9		X10	Y10	Z10		X11	Y11	Z11		X12	Y12	Z12		X13	Y13	Z13		X14	Y14	Z14		X15	Y15	Z15		X16	Y16	Z16		X17	Y17	Z17		X18	Y18	Z18		X19	Y19	Z19		X20	Y20	Z20		X21	Y21	Z21		X22	Y22	Z22		X23	Y23	Z23		X24	Y24	Z24		X25	Y25	Z25		X26	Y26	Z26		X27	Y27	Z27		X28	Y28	Z28		X29	Y29	Z29		X30	Y30	Z30		X31	Y31	Z31		X32	Y32	Z32		X33	Y33	Z33		X34	Y34	Z34		X35	Y35	Z35		X36	Y36	Z36		X37	Y37	Z37		X38	Y38	Z38		X39	Y39	Z39		
133	2.2	0.650695	1.40065	0.0458765		0.548175	1.53621	0.216284		0.552827	1.55346	-0.124117		0.685102	1.78866	0.0605796		0.61721	1.08422	0.173895		0.623695	1.06991	-0.0878461		0.422565	1.06507	0.0508487		0.598682	0.751737	0.21491		0.667415	0.700263	0.121213		0.599698	0.630976	0.199718		0.569182	0.54329	0.175102		0.576615	0.532337	0.0533759		0.537783	0.458163	0.179832		0.610405	0.414727	0.128305		0.541028	0.371323	0.186252		0.505138	0.0896253	0.148849		0.520464	0.106035	0.0609194		0.438901	0.0683254	0.0936432		0.583343	0.0826558	0.0641912		0.574658	0.0528211	0.168914		0.663888	0.027871	0.178551		0.669687	0.0511682	0.0719765		0.729573	0.0484804	0.105567		0.629918	0.788728	-0.149103		0.731692	0.784449	-0.0924335		0.668045	0.685812	-0.138538		0.699873	0.556737	-0.125876		0.72384	0.560757	-0.0121896		0.668065	0.493308	-0.140566		0.677073	0.420755	-0.0940145		0.625171	0.473312	-0.146373		0.436879	0.222481	-0.107667		0.47097	0.226894	-0.0197821		0.374327	0.255526	-0.0471688		0.513321	0.151374	-0.0316582		0.481317	0.149927	-0.126728		0.513862	0.0906219	-0.135415		0.545459	0.0933794	-0.0368241		0.579243	0.0593376	-0.0644136		
134	2.21667	0.649241	1.40123	0.0456173		0.547123	1.53725	0.215895		0.551055	1.55363	-0.124558		0.683792	1.78925	0.059255		0.614769	1.08476	0.175574		0.623182	1.07113	-0.086149		0.421061	1.06554	0.0510689		0.590429	0.750244	0.215357		0.657556	0.696898	0.121543		0.587899	0.629524	0.200016		0.554811	0.5428	0.175316		0.56183	0.531786	0.0535704		0.521816	0.457959	0.17995		0.594103	0.414002	0.128394		0.524377	0.371091	0.186289		0.486279	0.0897188	0.148618		0.501748	0.10609	0.0607057		0.420061	0.068517	0.0933098		0.564568	0.0826215	0.0640684		0.555684	0.0528001	0.168779		0.644861	0.0277105	0.178545		0.650851	0.0509988	0.0719795		0.710684	0.0482173	0.105657		0.633303	0.79151	-0.147678		0.734968	0.789479	-0.0906875		0.673548	0.689437	-0.136787		0.708037	0.561084	-0.123766		0.731561	0.565829	-0.0100147		0.680133	0.494964	-0.138642		0.694711	0.423251	-0.0922006		0.639	0.471618	-0.144682		0.471189	0.206453	-0.107333		0.504441	0.213364	-0.0192883		0.405755	0.233761	-0.0469697		0.553166	0.141938	-0.0312695		0.521775	0.138128	-0.126478		0.559354	0.0818922	-0.135253		0.590213	0.0869581	-0.0365207		0.626918	0.0560762	-0.0640969		
135	2.23333	0.647892	1.40078	0.0452995		0.546434	1.53751	0.215399		0.549797	1.55299	-0.125103		0.683476	1.78875	0.0578454		0.612008	1.08461	0.176926		0.621634	1.07088	-0.0847496		0.418862	1.0656	0.0515177		0.581797	0.748508	0.215962		0.647386	0.693512	0.122013		0.575987	0.627924	0.200434		0.540546	0.542168	0.175625		0.547174	0.531161	0.0538565		0.506034	0.457668	0.180137		0.577946	0.413161	0.128528		0.507852	0.370773	0.186363		0.467351	0.0897859	0.148324		0.482966	0.106138	0.0604341		0.401159	0.068677	0.0929024		0.545729	0.0825979	0.0638883		0.536644	0.0527653	0.168578		0.625773	0.0275563	0.178478		0.631959	0.05086	0.0719262		0.691736	0.0479925	0.105696		0.63447	0.793125	-0.146544		0.736199	0.793002	-0.0896325		0.676564	0.691811	-0.135566		0.713382	0.564119	-0.122423		0.736904	0.569424	-0.00869568		0.689848	0.495326	-0.137464		0.710677	0.425001	-0.0912841		0.650936	0.468466	-0.143621		0.507154	0.189392	-0.107393		0.539635	0.198872	-0.0192991		0.439486	0.210373	-0.0469402		0.59464	0.132277	-0.031575		0.563738	0.126059	-0.126817		0.606281	0.0735174	-0.135826		0.636538	0.0809209	-0.0370546		0.675905	0.0536339	-0.0647501		
136	2.25	0.646639	1.39997	0.0450531		0.545611	1.53708	0.215112		0.54841	1.55202	-0.125419		0.682642	1.78793	0.0569349		0.610017	1.08439	0.177926		0.620379	1.06938	-0.083651		0.417203	1.06511	0.0520495		0.573722	0.74665	0.216762		0.637654	0.690059	0.122618		0.564582	0.626303	0.201007		0.526766	0.541601	0.176079		0.532932	0.530657	0.0542812		0.490691	0.457516	0.180459		0.56214	0.412398	0.128738		0.491664	0.370597	0.186537		0.448407	0.0900833	0.148043		0.464136	0.106432	0.0601726		0.382197	0.0691344	0.0925325		0.526827	0.0827724	0.0636807		0.517567	0.0529027	0.168345		0.606633	0.0275046	0.178326		0.612982	0.0508525	0.0717938		0.672716	0.0478436	0.105626		0.634465	0.793225	-0.145618		0.736499	0.794437	-0.089268		0.677887	0.692458	-0.134776		0.716376	0.565252	-0.121713		0.740455	0.570967	-0.00812243		0.697538	0.493943	-0.136896		0.7251	0.425668	-0.0911688		0.661302	0.463567	-0.143043		0.544607	0.172014	-0.107729		0.576435	0.184081	-0.0197134		0.475519	0.186176	-0.0468956		0.637449	0.123079	-0.032569		0.606854	0.114439	-0.127721		0.654149	0.0662174	-0.137184		0.684005	0.0759587	-0.0384941		0.72566	0.052671	-0.0664932		
137	2.26667	0.645402	1.39847	0.0444162		0.544826	1.53611	0.214311		0.547336	1.5504	-0.12625		0.68224	1.78637	0.0555331		0.607578	1.08384	0.178688		0.619233	1.06809	-0.0827914		0.415409	1.06387	0.0519342		0.565965	0.744528	0.217071		0.628259	0.686418	0.122754		0.553668	0.624481	0.201171		0.513619	0.540828	0.176189		0.519315	0.529893	0.0543671		0.475974	0.457251	0.1805		0.546845	0.411357	0.128667		0.475932	0.370319	0.186479		0.429353	0.0903769	0.147705		0.4452	0.10664	0.0598403		0.363123	0.0695312	0.0921173		0.507813	0.0828734	0.0634288		0.498373	0.0530595	0.168092		0.587377	0.0274891	0.178186		0.593895	0.0507863	0.0716534		0.653584	0.0476715	0.105556		0.633105	0.792244	-0.145573		0.735754	0.794257	-0.0903745		0.677271	0.69178	-0.134917		0.716693	0.564854	-0.121907		0.742006	0.571066	-0.00861089		0.702897	0.491237	-0.137113		0.737651	0.425887	-0.0920165		0.669842	0.457394	-0.143072		0.583442	0.155424	-0.108187		0.614782	0.170253	-0.0204193		0.51392	0.162614	-0.0466612		0.681322	0.115427	-0.0341024		0.650792	0.104187	-0.129004		0.702434	0.060799	-0.13911		0.732157	0.0730516	-0.0406588		0.775597	0.0539961	-0.0691412		
138	2.28333	0.644006	1.39653	0.0443579		0.542756	1.53466	0.213453		0.546891	1.54815	-0.127124		0.681156	1.78442	0.0547452		0.605076	1.08258	0.179421		0.618141	1.06504	-0.0818782		0.413558	1.06232	0.0517314		0.558276	0.742156	0.217648		0.619068	0.682785	0.123136		0.543178	0.622454	0.20156		0.501166	0.539795	0.176494		0.506428	0.528946	0.0546453		0.461993	0.456807	0.180709		0.532163	0.410015	0.128727		0.460747	0.369875	0.186549		0.410235	0.090671	0.147377		0.426214	0.106854	0.0595211		0.343982	0.0699466	0.0916936		0.488739	0.082974	0.0631982		0.479094	0.0532023	0.167855		0.568029	0.0274442	0.178075		0.574742	0.0507051	0.071546		0.634378	0.0474701	0.10553		0.630204	0.789563	-0.14532		0.733697	0.792117	-0.0917446		0.674814	0.689273	-0.134891		0.714791	0.562517	-0.121911		0.741855	0.569329	-0.00905488		0.706366	0.486993	-0.137134		0.74842	0.425434	-0.0929295		0.67694	0.449908	-0.14282		0.623073	0.140412	-0.108493		0.653995	0.158048	-0.0210964		0.554083	0.140582	-0.0460084		0.725449	0.109929	-0.0359104		0.694847	0.0960222	-0.130434		0.750331	0.05791	-0.141416		0.78008	0.0727359	-0.0433275		0.824772	0.05809	-0.072473		
139	2.3	0.643449	1.39385	0.0435824		0.542521	1.53255	0.212401		0.54673	1.54539	-0.128201		0.681556	1.78167	0.0532336		0.603581	1.08146	0.179636		0.617164	1.06193	-0.0814957		0.412326	1.06007	0.0517373		0.551228	0.739618	0.218195		0.610409	0.678862	0.123541		0.533061	0.620367	0.201931		0.488928	0.53885	0.176769		0.493817	0.528064	0.0548992		0.448134	0.456507	0.180874		0.51763	0.408807	0.12881		0.445669	0.369593	0.186591		0.391231	0.0911816	0.147036		0.407418	0.107263	0.0591992		0.324963	0.0706805	0.0912216		0.46982	0.083173	0.0629997		0.459866	0.0534593	0.167644		0.548688	0.0273788	0.178039		0.555688	0.050592	0.0715182		0.615247	0.0471465	0.105617		0.62696	0.785724	-0.144851		0.731355	0.788428	-0.0930615		0.67153	0.685411	-0.134464		0.711456	0.558662	-0.12126		0.74045	0.566216	-0.00893161		0.708628	0.481724	-0.136529		0.757714	0.424792	-0.0933853		0.683212	0.441749	-0.141958		0.663071	0.12814	-0.108619		0.693412	0.148589	-0.0216331		0.595405	0.121517	-0.0451241		0.769058	0.107483	-0.0376828		0.738507	0.0908702	-0.131786		0.797229	0.0582964	-0.143719		0.826895	0.0757355	-0.0460362		0.872343	0.0655137	-0.0758928		
